<svg width="16" height="16" viewBox="0 0 16 16" fill="none" xmlns="http://www.w3.org/2000/svg">
<g opacity="0.7" clip-path="url(#clip0_628_16136)">
<g clip-path="url(#clip1_628_16136)">
<path d="M10.5959 0.126099H8.10967V9.83317C8.10967 10.9898 7.15346 11.9399 5.96347 11.9399C4.77349 11.9399 3.81726 10.9898 3.81726 9.83317C3.81726 8.69726 4.75224 7.76781 5.89974 7.72654V5.28945C3.37102 5.33074 1.33105 7.33411 1.33105 9.83317C1.33105 12.3529 3.41352 14.3769 5.98474 14.3769C8.55593 14.3769 10.6384 12.3322 10.6384 9.83317V4.85571C11.5734 5.51664 12.7208 5.90905 13.9321 5.92971V3.4926C12.0621 3.43064 10.5959 1.9436 10.5959 0.126099Z" fill="white"/>
</g>
</g>
<defs>
<clipPath id="clip0_628_16136">
<rect width="12.9084" height="14.8446" fill="white" transform="translate(1.33105)"/>
</clipPath>
<clipPath id="clip1_628_16136">
<rect width="12.9084" height="14.8446" fill="white" transform="translate(1.33105)"/>
</clipPath>
</defs>
</svg>
