<svg width="16" height="16" viewBox="0 0 16 16" fill="none" xmlns="http://www.w3.org/2000/svg">
<g clip-path="url(#clip0_628_16142)">
<g opacity="0.7" clip-path="url(#clip1_628_16142)">
<g clip-path="url(#clip2_628_16142)">
<path d="M15.8455 4.62529C15.8455 4.62529 15.6943 3.61666 15.2283 3.17377C14.6384 2.59088 13.9789 2.58802 13.6763 2.55373C11.5101 2.40515 8.25782 2.40515 8.25782 2.40515H8.25175C8.25175 2.40515 4.99946 2.40515 2.83327 2.55373C2.53073 2.58802 1.8712 2.59088 1.28124 3.17377C0.815331 3.61666 0.667086 4.62529 0.667086 4.62529C0.667086 4.62529 0.509766 5.81108 0.509766 6.99401V8.10265C0.509766 9.28557 0.664061 10.4713 0.664061 10.4713C0.664061 10.4713 0.815331 11.48 1.27821 11.9229C1.86817 12.5058 2.64267 12.4858 2.98757 12.5486C4.22798 12.6601 8.25479 12.6944 8.25479 12.6944C8.25479 12.6944 11.5101 12.6886 13.6763 12.5429C13.9789 12.5086 14.6384 12.5058 15.2283 11.9229C15.6943 11.48 15.8455 10.4713 15.8455 10.4713C15.8455 10.4713 15.9998 9.28843 15.9998 8.10265V6.99401C15.9998 5.81108 15.8455 4.62529 15.8455 4.62529ZM6.65435 9.44844V5.33676L10.8385 7.39975L6.65435 9.44844Z" fill="white"/>
</g>
</g>
</g>
<defs>
<clipPath id="clip0_628_16142">
<rect width="15.49" height="15.49" fill="white" transform="translate(0.509766)"/>
</clipPath>
<clipPath id="clip1_628_16142">
<rect width="15.49" height="10.9721" fill="white" transform="translate(0.509766 1.93628)"/>
</clipPath>
<clipPath id="clip2_628_16142">
<rect width="15.49" height="10.9721" fill="white" transform="translate(0.509766 1.93628)"/>
</clipPath>
</defs>
</svg>
