<svg width="16" height="14" viewBox="0 0 16 14" fill="none" xmlns="http://www.w3.org/2000/svg">
<g clip-path="url(#clip0_628_16126)">
<path d="M5.26353 13.1757C11.1078 13.1757 14.3046 8.33253 14.3046 4.13473C14.3046 3.99854 14.302 3.85913 14.2955 3.72295C14.9177 3.27309 15.4547 2.7161 15.8807 2.07778C15.3011 2.3353 14.6866 2.50375 14.0567 2.57669C14.7196 2.17975 15.2165 1.55499 15.454 0.819211C14.8306 1.18904 14.1484 1.44979 13.4365 1.59049C12.9576 1.08125 12.3238 0.744343 11.6338 0.631395C10.9432 0.518446 10.2352 0.635913 9.61882 0.965721C9.0018 1.29553 8.51128 1.81896 8.22213 2.45599C7.93298 3.09302 7.86134 3.80685 8.01882 4.48841C6.75574 4.42516 5.52041 4.09665 4.39222 3.52545C3.26403 2.95361 2.26879 2.15135 1.47041 1.17032C1.06444 1.86995 0.940521 2.69738 1.12317 3.48543C1.30583 4.27284 1.7815 4.96151 2.45338 5.41136C1.94931 5.39523 1.45557 5.25904 1.0141 5.01508V5.05445C1.01345 5.78829 1.2671 6.49954 1.7318 7.06751C2.19715 7.63612 2.84386 8.02531 3.5635 8.17053C3.09622 8.29832 2.6057 8.31704 2.13003 8.22474C2.33269 8.85596 2.72833 9.40844 3.26015 9.80408C3.79198 10.1997 4.43417 10.4198 5.09701 10.4334C3.97141 11.3176 2.58117 11.7971 1.15028 11.7945C0.895988 11.7945 0.642338 11.7791 0.390625 11.7481C1.84475 12.6807 3.53639 13.1764 5.26353 13.1757Z" fill="white"/>
</g>
<defs>
<clipPath id="clip0_628_16126">
<rect width="15.49" height="12.9084" fill="white" transform="translate(0.390625 0.290894)"/>
</clipPath>
</defs>
</svg>
