<svg width="25" height="24" viewBox="0 0 25 24" fill="none" xmlns="http://www.w3.org/2000/svg">
<g clip-path="url(#clip0_628_16098)">
<g clip-path="url(#clip1_628_16098)">
<path fill-rule="evenodd" clip-rule="evenodd" d="M1.36612 11.3332C0.835729 11.3332 0.405762 11.7632 0.405762 12.2935C0.405762 12.8239 0.835731 13.2539 1.36612 13.2539H21.2728L13.4727 22.029C13.1203 22.4254 13.156 23.0324 13.5524 23.3848C13.9489 23.7372 14.5559 23.7015 14.9083 23.3051L24.2349 12.8126L24.802 12.1745L24.2349 11.5365L14.9083 1.04402C14.5559 0.647601 13.9489 0.611894 13.5524 0.964269C13.156 1.31664 13.1203 1.92366 13.4727 2.32008L21.4843 11.3332H1.36612Z" fill="white"/>
</g>
</g>
<defs>
<clipPath id="clip0_628_16098">
<rect width="24.695" height="23.0487" fill="white" transform="translate(0.269043 0.71582)"/>
</clipPath>
<clipPath id="clip1_628_16098">
<rect width="24.695" height="23.0487" fill="white" transform="translate(0.269043 0.71582)"/>
</clipPath>
</defs>
</svg>
