<svg width="16" height="16" viewBox="0 0 16 16" fill="none" xmlns="http://www.w3.org/2000/svg">
<g clip-path="url(#clip0_628_16131)">
<g clip-path="url(#clip1_628_16131)">
<path fill-rule="evenodd" clip-rule="evenodd" d="M2.62668 3.91131C3.55742 3.91131 4.31194 3.15679 4.31194 2.22604C4.31194 1.29529 3.55742 0.540771 2.62668 0.540771C1.69593 0.540771 0.941406 1.29529 0.941406 2.22604C0.941406 3.15679 1.69593 3.91131 2.62668 3.91131ZM15.0134 14.5781V9.26205C15.0134 7.72453 14.7802 6.4935 14.0056 5.78896C13.4152 5.25036 12.5982 4.88541 11.0524 4.96204C9.69625 5.0304 8.88644 6.21346 8.73703 6.45382L8.69572 5.1616H5.91062V14.5775H8.83739V9.64356L8.83242 9.49634C8.85611 9.09669 8.92007 8.54867 9.19353 8.13192C9.52424 7.62804 10.1682 7.45385 10.8441 7.52549C11.8518 7.62972 12.069 8.68924 12.069 9.18434V14.5786L15.0134 14.5781ZM1.15035 5.16222H4.06883V14.5781H1.15035V5.16222Z" fill="white"/>
</g>
</g>
<defs>
<clipPath id="clip0_628_16131">
<rect width="14.1992" height="14.8446" fill="white" transform="translate(0.86084 0.322754)"/>
</clipPath>
<clipPath id="clip1_628_16131">
<rect width="14.1992" height="14.8446" fill="white" transform="translate(0.86084 0.322754)"/>
</clipPath>
</defs>
</svg>
